<?xml version="1.0" encoding="UTF-8"?>
<svg xmlns="http://www.w3.org/2000/svg" xmlns:xlink="http://www.w3.org/1999/xlink" width="31pt" height="31pt" viewBox="0 0 31 31" version="1.1">
<g id="surface1">
<path style="fill:none;stroke-width:10;stroke-linecap:butt;stroke-linejoin:miter;stroke:rgb(14.901961%,73.333333%,64.313725%);stroke-opacity:1;stroke-miterlimit:4;" d="M 120.00693 62.5 C 120.00693 94.254032 94.254032 120.00693 62.5 120.00693 C 30.745968 120.00693 4.99307 94.254032 4.99307 62.5 C 4.99307 30.745968 30.745968 4.99307 62.5 4.99307 C 94.254032 4.99307 120.00693 30.745968 120.00693 62.5 Z M 120.00693 62.5 " transform="matrix(0.248,0,0,0.248,0,0)"/>
<path style="fill:none;stroke-width:10;stroke-linecap:round;stroke-linejoin:miter;stroke:rgb(14.901961%,73.333333%,64.313725%);stroke-opacity:1;stroke-miterlimit:4;" d="M 85.480721 85.480721 C 72.785408 98.176033 52.214592 98.176033 39.519279 85.480721 C 26.823967 72.785408 26.823967 52.214592 39.519279 39.519279 C 52.214592 26.823967 72.785408 26.823967 85.480721 39.519279 " transform="matrix(0.248,0,0,0.248,0,0)"/>
</g>
</svg>
